<mxfile host="app.diagrams.net" modified="2024-07-23T01:42:32.556Z" agent="Mozilla/5.0 (Windows NT 10.0; Win64; x64) AppleWebKit/537.36 (KHTML, like Gecko) Chrome/126.0.0.0 Safari/537.36" version="24.7.3" etag="xlJngr8SIHUPvhPL44g1" type="github">
  <diagram name="第 1 页" id="m2kS1PemUTTRJRQWlGag">
    <mxGraphModel>
      <root>
        <mxCell id="0" />
        <mxCell id="1" parent="0" />
      </root>
    </mxGraphModel>
  </diagram>
</mxfile>
